<svg width="284" height="98" viewBox="0 0 284 98" fill="none" xmlns="http://www.w3.org/2000/svg">
<path d="M139.431 72.1646C136.237 72.1646 133.348 71.6201 130.766 70.5313C128.228 69.4425 126.214 67.8745 124.726 65.8273C123.238 63.7801 122.472 61.3627 122.429 58.5753H132.276C132.407 60.448 133.064 61.9292 134.245 63.018C135.471 64.1067 137.134 64.6513 139.234 64.6513C141.379 64.6513 143.064 64.1505 144.289 63.1486C145.515 62.1033 146.127 60.7532 146.127 59.098C146.127 57.7479 145.712 56.6372 144.88 55.766C144.049 54.8947 142.998 54.2199 141.729 53.7406C140.504 53.218 138.797 52.6519 136.609 52.042C133.632 51.1707 131.203 50.3214 129.322 49.494C127.484 48.6227 125.886 47.338 124.529 45.6393C123.216 43.8972 122.56 41.5886 122.56 38.714C122.56 36.0135 123.238 33.6615 124.595 31.658C125.952 29.6544 127.855 28.13 130.306 27.0846C132.757 25.9958 135.558 25.4513 138.709 25.4513C143.436 25.4513 147.265 26.6055 150.198 28.914C153.174 31.1788 154.815 34.3584 155.121 38.4526H145.011C144.924 36.8846 144.246 35.5998 142.976 34.598C141.751 33.5526 140.11 33.03 138.053 33.03C136.258 33.03 134.814 33.4873 133.72 34.402C132.67 35.3166 132.145 36.6451 132.145 38.3873C132.145 39.6068 132.538 40.6305 133.326 41.458C134.158 42.242 135.164 42.8953 136.346 43.418C137.571 43.8972 139.278 44.4633 141.466 45.1166C144.443 45.9879 146.872 46.8587 148.753 47.73C150.635 48.6012 152.255 49.9079 153.611 51.65C154.968 53.392 155.646 55.6787 155.646 58.51C155.646 60.9492 155.012 63.214 153.743 65.3046C152.473 67.3953 150.613 69.0721 148.162 70.3353C145.712 71.5547 142.801 72.1646 139.431 72.1646ZM198.408 35.5126L175.891 88.8246H166.109L173.987 70.7926L159.413 35.5126H169.72L179.107 60.7966L188.626 35.5126H198.408ZM212.552 40.7393C213.734 39.0842 215.353 37.7122 217.41 36.6233C219.511 35.4908 221.896 34.9246 224.566 34.9246C227.673 34.9246 230.474 35.6868 232.969 37.2113C235.507 38.7358 237.498 40.9134 238.942 43.7446C240.431 46.532 241.174 49.7772 241.174 53.4793C241.174 57.1814 240.431 60.47 238.942 63.3446C237.498 66.1759 235.507 68.3753 232.969 69.9433C230.474 71.5113 227.673 72.2953 224.566 72.2953C221.896 72.2953 219.533 71.7507 217.476 70.662C215.463 69.5732 213.821 68.2012 212.552 66.546V88.9553H203.362V35.5126H212.552V40.7393ZM231.787 53.4793C231.787 51.3014 231.327 49.4286 230.408 47.8606C229.533 46.2492 228.352 45.0294 226.863 44.202C225.419 43.3745 223.844 42.9606 222.137 42.9606C220.474 42.9606 218.898 43.3961 217.41 44.2673C215.966 45.0947 214.784 46.3145 213.865 47.926C212.99 49.5374 212.552 51.4321 212.552 53.61C212.552 55.7879 212.99 57.6825 213.865 59.294C214.784 60.9054 215.966 62.1467 217.41 63.018C218.898 63.8454 220.474 64.2593 222.137 64.2593C223.844 64.2593 225.419 63.8239 226.863 62.9526C228.352 62.0814 229.533 60.84 230.408 59.2286C231.327 57.6172 231.787 55.7006 231.787 53.4793ZM281.662 52.826C281.662 54.1326 281.574 55.3086 281.399 56.354H254.812C255.03 58.9673 255.95 61.0145 257.569 62.4953C259.188 63.9761 261.18 64.7166 263.543 64.7166C266.957 64.7166 269.386 63.2574 270.83 60.3393H280.743C279.692 63.8239 277.679 66.6985 274.703 68.9633C271.727 71.1846 268.073 72.2953 263.74 72.2953C260.239 72.2953 257.088 71.5332 254.287 70.0086C251.53 68.4406 249.363 66.2412 247.788 63.41C246.256 60.5787 245.49 57.3121 245.49 53.61C245.49 49.8641 246.256 46.5759 247.788 43.7446C249.319 40.9134 251.464 38.7358 254.221 37.2113C256.978 35.6868 260.151 34.9246 263.74 34.9246C267.197 34.9246 270.283 35.6651 272.996 37.146C275.753 38.6268 277.876 40.7393 279.364 43.4833C280.896 46.1839 281.662 49.298 281.662 52.826ZM272.143 50.2126C272.099 47.8606 271.245 45.9879 269.583 44.594C267.919 43.1566 265.884 42.438 263.477 42.438C261.201 42.438 259.276 43.1347 257.7 44.5286C256.168 45.8787 255.227 47.7734 254.878 50.2126H272.143Z" fill="#1A1A1A"/>
<path fill-rule="evenodd" clip-rule="evenodd" d="M39.1279 75.0987C40.8979 72.9885 43.5198 71.7687 46.2846 71.7687H83.8425C94.1324 71.7687 102.474 63.4817 102.474 53.2595V44.0052C102.474 33.7827 94.1324 25.496 83.8425 25.496H76.5609C73.7961 25.496 71.1742 26.716 69.4041 28.8259L63.3461 36.0479C61.5761 38.1578 58.9542 39.3778 56.1894 39.3778H18.6317C8.34166 39.3778 0 47.6647 0 57.887V67.1412C0 77.3635 8.34166 85.6504 18.6317 85.6504H25.9131C28.6779 85.6504 31.2998 84.4306 33.0697 82.3204L39.1279 75.0987ZM88.5003 44.0052C88.5003 41.4497 86.4148 39.3778 83.8425 39.3778H69.5738C66.8094 39.3778 64.1875 40.5979 62.4175 42.7077L56.3591 49.9298C54.5894 52.0396 51.9675 53.2595 49.2027 53.2595H18.6317C16.0592 53.2595 13.9737 55.3314 13.9737 57.887V67.1412C13.9737 69.6968 16.0592 71.7687 18.6317 71.7687H32.9C35.6647 71.7687 38.2866 70.5485 40.0565 68.4387L46.1149 61.2166C47.8846 59.1068 50.5065 57.887 53.2713 57.887H83.8425C86.4148 57.887 88.5003 55.815 88.5003 53.2595V44.0052Z" fill="#F46A35"/>
</svg>
