<svg width="278" height="98" viewBox="0 0 278 98" fill="none" xmlns="http://www.w3.org/2000/svg">
<path fill-rule="evenodd" clip-rule="evenodd" d="M39.1279 75.0987C40.8979 72.9885 43.5198 71.7687 46.2846 71.7687H83.8425C94.1324 71.7687 102.474 63.4817 102.474 53.2595V44.0052C102.474 33.7827 94.1324 25.496 83.8425 25.496H76.5609C73.7961 25.496 71.1742 26.716 69.4041 28.8259L63.3461 36.0479C61.5761 38.1578 58.9542 39.3778 56.1894 39.3778H18.6317C8.34166 39.3778 0 47.6647 0 57.887V67.1412C0 77.3635 8.34166 85.6504 18.6317 85.6504H25.9131C28.6779 85.6504 31.2998 84.4306 33.0697 82.3204L39.1279 75.0987ZM88.5003 44.0052C88.5003 41.4497 86.4148 39.3778 83.8425 39.3778H69.5738C66.8094 39.3778 64.1875 40.5979 62.4175 42.7077L56.3591 49.9298C54.5894 52.0396 51.9675 53.2595 49.2027 53.2595H18.6317C16.0592 53.2595 13.9737 55.3314 13.9737 57.887V67.1412C13.9737 69.6968 16.0592 71.7687 18.6317 71.7687H32.9C35.6647 71.7687 38.2866 70.5485 40.0565 68.4387L46.1149 61.2166C47.8846 59.1068 50.5065 57.887 53.2713 57.887H83.8425C86.4148 57.887 88.5003 55.815 88.5003 53.2595V44.0052Z" fill="#F46A35"/>
<path d="M140.672 43.904H134.464V72H125.376V43.904H121.344V36.544H125.376V34.752C125.376 30.4 126.613 27.2 129.088 25.152C131.563 23.104 135.296 22.144 140.288 22.272V29.824C138.112 29.7813 136.597 30.144 135.744 30.912C134.891 31.68 134.464 33.0667 134.464 35.072V36.544H140.672V43.904ZM155.439 24.64V72H146.479V24.64H155.439ZM197.763 36.544V72H188.739V67.52C187.587 69.056 186.072 70.272 184.195 71.168C182.36 72.0213 180.355 72.448 178.179 72.448C175.406 72.448 172.952 71.872 170.819 70.72C168.686 69.5253 167 67.7973 165.763 65.536C164.568 63.232 163.971 60.5013 163.971 57.344V36.544H172.931V56.064C172.931 58.88 173.635 61.056 175.043 62.592C176.451 64.0853 178.371 64.832 180.803 64.832C183.278 64.832 185.219 64.0853 186.627 62.592C188.035 61.056 188.739 58.88 188.739 56.064V36.544H197.763ZM226.188 72L218.892 60.992L212.428 72H202.828L214.412 54.208L202.7 36.544H212.812L220.044 47.488L226.572 36.544H236.172L224.524 54.208L236.3 72H226.188ZM256.91 72.576C253.497 72.576 250.425 71.8293 247.694 70.336C244.963 68.8 242.809 66.6453 241.23 63.872C239.694 61.0987 238.926 57.8987 238.926 54.272C238.926 50.6453 239.715 47.4453 241.294 44.672C242.915 41.8987 245.113 39.7653 247.886 38.272C250.659 36.736 253.753 35.968 257.166 35.968C260.579 35.968 263.673 36.736 266.446 38.272C269.219 39.7653 271.395 41.8987 272.974 44.672C274.595 47.4453 275.406 50.6453 275.406 54.272C275.406 57.8987 274.574 61.0987 272.91 63.872C271.289 66.6453 269.07 68.8 266.254 70.336C263.481 71.8293 260.366 72.576 256.91 72.576ZM256.91 64.768C258.531 64.768 260.046 64.384 261.454 63.616C262.905 62.8053 264.057 61.6107 264.91 60.032C265.763 58.4533 266.19 56.5333 266.19 54.272C266.19 50.9013 265.294 48.32 263.502 46.528C261.753 44.6933 259.598 43.776 257.038 43.776C254.478 43.776 252.323 44.6933 250.574 46.528C248.867 48.32 248.014 50.9013 248.014 54.272C248.014 57.6427 248.846 60.2453 250.51 62.08C252.217 63.872 254.35 64.768 256.91 64.768Z" fill="#252424"/>
</svg>
