<svg width="288" height="98" viewBox="0 0 288 98" fill="none" xmlns="http://www.w3.org/2000/svg">
<path fill-rule="evenodd" clip-rule="evenodd" d="M39.1279 75.0987C40.8979 72.9885 43.5198 71.7687 46.2846 71.7687H83.8425C94.1324 71.7687 102.474 63.4817 102.474 53.2595V44.0052C102.474 33.7827 94.1324 25.496 83.8425 25.496H76.5609C73.7961 25.496 71.1742 26.716 69.4041 28.8259L63.3461 36.0479C61.5761 38.1578 58.9542 39.3778 56.1894 39.3778H18.6317C8.34166 39.3778 0 47.6647 0 57.887V67.1412C0 77.3635 8.34166 85.6504 18.6317 85.6504H25.9131C28.6779 85.6504 31.2998 84.4306 33.0697 82.3204L39.1279 75.0987ZM88.5003 44.0052C88.5003 41.4497 86.4148 39.3778 83.8425 39.3778H69.5738C66.8094 39.3778 64.1875 40.5979 62.4175 42.7077L56.3591 49.9298C54.5894 52.0396 51.9675 53.2595 49.2027 53.2595H18.6317C16.0592 53.2595 13.9737 55.3314 13.9737 57.887V67.1412C13.9737 69.6968 16.0592 71.7687 18.6317 71.7687H32.9C35.6647 71.7687 38.2866 70.5485 40.0565 68.4387L46.1149 61.2166C47.8846 59.1068 50.5065 57.887 53.2713 57.887H83.8425C86.4148 57.887 88.5003 55.815 88.5003 53.2595V44.0052Z" fill="#F46A35"/>
<path d="M150 27.328V34.56H131.376V46.016H145.648V53.12H131.376V72H122.416V27.328H150ZM165.314 24.64V72H156.354V24.64H165.314ZM207.638 36.544V72H198.614V67.52C197.462 69.056 195.947 70.272 194.07 71.168C192.235 72.0213 190.23 72.448 188.054 72.448C185.281 72.448 182.827 71.872 180.694 70.72C178.561 69.5253 176.875 67.7973 175.638 65.536C174.443 63.232 173.846 60.5013 173.846 57.344V36.544H182.806V56.064C182.806 58.88 183.51 61.056 184.918 62.592C186.326 64.0853 188.246 64.832 190.678 64.832C193.153 64.832 195.094 64.0853 196.502 62.592C197.91 61.056 198.614 58.88 198.614 56.064V36.544H207.638ZM236.063 72L228.767 60.992L222.303 72H212.703L224.287 54.208L212.575 36.544H222.687L229.919 47.488L236.447 36.544H246.047L234.399 54.208L246.175 72H236.063ZM266.785 72.576C263.372 72.576 260.3 71.8293 257.569 70.336C254.838 68.8 252.684 66.6453 251.105 63.872C249.569 61.0987 248.801 57.8987 248.801 54.272C248.801 50.6453 249.59 47.4453 251.169 44.672C252.79 41.8987 254.988 39.7653 257.761 38.272C260.534 36.736 263.628 35.968 267.041 35.968C270.454 35.968 273.548 36.736 276.321 38.272C279.094 39.7653 281.27 41.8987 282.849 44.672C284.47 47.4453 285.281 50.6453 285.281 54.272C285.281 57.8987 284.449 61.0987 282.785 63.872C281.164 66.6453 278.945 68.8 276.129 70.336C273.356 71.8293 270.241 72.576 266.785 72.576ZM266.785 64.768C268.406 64.768 269.921 64.384 271.329 63.616C272.78 62.8053 273.932 61.6107 274.785 60.032C275.638 58.4533 276.065 56.5333 276.065 54.272C276.065 50.9013 275.169 48.32 273.377 46.528C271.628 44.6933 269.473 43.776 266.913 43.776C264.353 43.776 262.198 44.6933 260.449 46.528C258.742 48.32 257.889 50.9013 257.889 54.272C257.889 57.6427 258.721 60.2453 260.385 62.08C262.092 63.872 264.225 64.768 266.785 64.768Z" fill="#252424"/>
</svg>
