<svg width="103" height="61" viewBox="0 0 103 61" fill="none" xmlns="http://www.w3.org/2000/svg">
<path fill-rule="evenodd" clip-rule="evenodd" d="M39.1279 49.6027C40.8979 47.4926 43.5198 46.2727 46.2846 46.2727H83.8425C94.1324 46.2727 102.474 37.9858 102.474 27.7635V18.5093C102.474 8.28678 94.1324 0 83.8425 0H76.5609C73.7961 0 71.1742 1.21998 69.4041 3.32993L63.3461 10.5519C61.5761 12.6618 58.9542 13.8818 56.1894 13.8818H18.6317C8.34166 13.8818 0 22.1687 0 32.391V41.6452C0 51.8675 8.34166 60.1545 18.6317 60.1545H25.9131C28.6779 60.1545 31.2998 58.9347 33.0697 56.8245L39.1279 49.6027ZM88.5003 18.5093C88.5003 15.9537 86.4148 13.8818 83.8425 13.8818H69.5738C66.8094 13.8818 64.1875 15.102 62.4175 17.2117L56.3591 24.4339C54.5894 26.5437 51.9675 27.7635 49.2027 27.7635H18.6317C16.0592 27.7635 13.9737 29.8354 13.9737 32.391V41.6452C13.9737 44.2008 16.0592 46.2727 18.6317 46.2727H32.9C35.6647 46.2727 38.2866 45.0525 40.0565 42.9427L46.1149 35.7206C47.8846 33.6108 50.5065 32.391 53.2713 32.391H83.8425C86.4148 32.391 88.5003 30.319 88.5003 27.7635V18.5093Z" fill="#F46A35"/>
</svg>
