<svg width="250" height="250" viewBox="0 0 250 250" fill="none" xmlns="http://www.w3.org/2000/svg">
<path d="M2 7H70.6075ZM80.4086 7H90.2097ZM100.011 7H139.215ZM178.419 7H247.027ZM2 16.8011H11.8011ZM60.8064 16.8011H70.6075ZM119.613 16.8011H139.215ZM158.817 16.8011H168.618ZM178.419 16.8011H188.22ZM237.226 16.8011H247.027ZM2 26.6021H11.8011ZM21.6021 26.6021H51.0054ZM60.8064 26.6021H70.6075ZM80.4086 26.6021H109.812ZM129.414 26.6021H149.016ZM178.419 26.6021H188.22ZM198.021 26.6021H227.425ZM237.226 26.6021H247.027ZM2 36.4032H11.8011ZM21.6021 36.4032H51.0054ZM60.8064 36.4032H70.6075ZM90.2097 36.4032H100.011ZM129.414 36.4032H139.215ZM149.016 36.4032H158.817ZM178.419 36.4032H188.22ZM198.021 36.4032H227.425ZM237.226 36.4032H247.027ZM2 46.2043H11.8011ZM21.6021 46.2043H51.0054ZM60.8064 46.2043H70.6075ZM100.011 46.2043H119.613ZM139.215 46.2043H149.016ZM158.817 46.2043H168.618ZM178.419 46.2043H188.22ZM198.021 46.2043H227.425ZM237.226 46.2043H247.027ZM2 56.0054H11.8011ZM60.8064 56.0054H70.6075ZM80.4086 56.0054H90.2097ZM119.613 56.0054H149.016ZM158.817 56.0054H168.618ZM178.419 56.0054H188.22ZM237.226 56.0054H247.027ZM2 65.8064H70.6075ZM80.4086 65.8064H90.2097ZM100.011 65.8064H109.812ZM119.613 65.8064H129.414ZM139.215 65.8064H149.016ZM158.817 65.8064H168.618ZM178.419 65.8064H247.027ZM109.812 75.6075H119.613ZM139.215 75.6075H168.618ZM2 85.4086H11.8011ZM21.6021 85.4086H31.4032ZM60.8064 85.4086H80.4086ZM90.2097 85.4086H100.011ZM119.613 85.4086H129.414ZM139.215 85.4086H149.016ZM158.817 85.4086H168.618ZM188.22 85.4086H198.021ZM217.624 85.4086H227.425ZM237.226 85.4086H247.027ZM2 95.2097H11.8011ZM21.6021 95.2097H41.2043ZM51.0054 95.2097H60.8064ZM70.6075 95.2097H80.4086ZM100.011 95.2097H109.812ZM139.215 95.2097H168.618ZM178.419 95.2097H198.021ZM207.823 95.2097H217.624ZM227.425 95.2097H247.027ZM2 105.011H41.2043ZM60.8064 105.011H119.613ZM129.414 105.011H139.215ZM149.016 105.011H158.817ZM168.618 105.011H227.425ZM237.226 105.011H247.027ZM2 114.812H11.8011ZM21.6021 114.812H31.4032ZM51.0054 114.812H60.8064ZM70.6075 114.812H100.011ZM119.613 114.812H129.414ZM149.016 114.812H158.817ZM168.618 114.812H178.419ZM188.22 114.812H198.021ZM207.823 114.812H217.624ZM11.8011 124.613H21.6021ZM60.8064 124.613H109.812ZM119.613 124.613H129.414ZM139.215 124.613H158.817ZM178.419 124.613H188.22ZM237.226 124.613H247.027ZM31.4032 134.414H41.2043ZM51.0054 134.414H60.8064ZM90.2097 134.414H100.011ZM119.613 134.414H129.414ZM139.215 134.414H168.618ZM178.419 134.414H198.021ZM227.425 134.414H247.027ZM2 144.215H21.6021ZM31.4032 144.215H41.2043ZM51.0054 144.215H90.2097ZM119.613 144.215H139.215ZM149.016 144.215H168.618ZM207.823 144.215H227.425ZM237.226 144.215H247.027ZM21.6021 154.016H31.4032ZM41.2043 154.016H51.0054ZM70.6075 154.016H80.4086ZM109.812 154.016H129.414ZM149.016 154.016H168.618ZM188.22 154.016H217.624ZM2 163.817H31.4032ZM41.2043 163.817H90.2097ZM119.613 163.817H139.215ZM158.817 163.817H207.823ZM227.425 163.817H237.226ZM80.4086 173.618H90.2097ZM129.414 173.618H139.215ZM158.817 173.618H168.618ZM198.021 173.618H207.823ZM237.226 173.618H247.027ZM2 183.419H70.6075ZM80.4086 183.419H90.2097ZM109.812 183.419H129.414ZM139.215 183.419H149.016ZM158.817 183.419H168.618ZM178.419 183.419H188.22ZM198.021 183.419H207.823ZM237.226 183.419H247.027ZM2 193.22H11.8011ZM60.8064 193.22H70.6075ZM139.215 193.22H149.016ZM158.817 193.22H168.618ZM198.021 193.22H207.823ZM227.425 193.22H237.226ZM2 203.022H11.8011ZM21.6021 203.022H51.0054ZM60.8064 203.022H70.6075ZM90.2097 203.022H100.011ZM149.016 203.022H207.823ZM227.425 203.022H237.226ZM2 212.823H11.8011ZM21.6021 212.823H51.0054ZM60.8064 212.823H70.6075ZM90.2097 212.823H100.011ZM119.613 212.823H158.817ZM168.618 212.823H178.419ZM198.021 212.823H207.823ZM217.624 212.823H237.226ZM2 222.624H11.8011ZM21.6021 222.624H51.0054ZM60.8064 222.624H70.6075ZM80.4086 222.624H100.011ZM109.812 222.624H158.817ZM168.618 222.624H178.419ZM188.22 222.624H217.624ZM227.425 222.624H247.027ZM2 232.425H11.8011ZM60.8064 232.425H70.6075ZM90.2097 232.425H100.011ZM139.215 232.425H207.823ZM2 242.226H70.6075ZM80.4086 242.226H90.2097ZM109.812 242.226H119.613ZM158.817 242.226H188.22ZM207.823 242.226H217.624ZM237.226 242.226H247.027Z" fill="white"/>
<path d="M2 7H70.6075M80.4086 7H90.2097M100.011 7H139.215M178.419 7H247.027M2 16.8011H11.8011M60.8064 16.8011H70.6075M119.613 16.8011H139.215M158.817 16.8011H168.618M178.419 16.8011H188.22M237.226 16.8011H247.027M2 26.6021H11.8011M21.6021 26.6021H51.0054M60.8064 26.6021H70.6075M80.4086 26.6021H109.812M129.414 26.6021H149.016M178.419 26.6021H188.22M198.021 26.6021H227.425M237.226 26.6021H247.027M2 36.4032H11.8011M21.6021 36.4032H51.0054M60.8064 36.4032H70.6075M90.2097 36.4032H100.011M129.414 36.4032H139.215M149.016 36.4032H158.817M178.419 36.4032H188.22M198.021 36.4032H227.425M237.226 36.4032H247.027M2 46.2043H11.8011M21.6021 46.2043H51.0054M60.8064 46.2043H70.6075M100.011 46.2043H119.613M139.215 46.2043H149.016M158.817 46.2043H168.618M178.419 46.2043H188.22M198.021 46.2043H227.425M237.226 46.2043H247.027M2 56.0054H11.8011M60.8064 56.0054H70.6075M80.4086 56.0054H90.2097M119.613 56.0054H149.016M158.817 56.0054H168.618M178.419 56.0054H188.22M237.226 56.0054H247.027M2 65.8064H70.6075M80.4086 65.8064H90.2097M100.011 65.8064H109.812M119.613 65.8064H129.414M139.215 65.8064H149.016M158.817 65.8064H168.618M178.419 65.8064H247.027M109.812 75.6075H119.613M139.215 75.6075H168.618M2 85.4086H11.8011M21.6021 85.4086H31.4032M60.8064 85.4086H80.4086M90.2097 85.4086H100.011M119.613 85.4086H129.414M139.215 85.4086H149.016M158.817 85.4086H168.618M188.22 85.4086H198.021M217.624 85.4086H227.425M237.226 85.4086H247.027M2 95.2097H11.8011M21.6021 95.2097H41.2043M51.0054 95.2097H60.8064M70.6075 95.2097H80.4086M100.011 95.2097H109.812M139.215 95.2097H168.618M178.419 95.2097H198.021M207.823 95.2097H217.624M227.425 95.2097H247.027M2 105.011H41.2043M60.8064 105.011H119.613M129.414 105.011H139.215M149.016 105.011H158.817M168.618 105.011H227.425M237.226 105.011H247.027M2 114.812H11.8011M21.6021 114.812H31.4032M51.0054 114.812H60.8064M70.6075 114.812H100.011M119.613 114.812H129.414M149.016 114.812H158.817M168.618 114.812H178.419M188.22 114.812H198.021M207.823 114.812H217.624M11.8011 124.613H21.6021M60.8064 124.613H109.812M119.613 124.613H129.414M139.215 124.613H158.817M178.419 124.613H188.22M237.226 124.613H247.027M31.4032 134.414H41.2043M51.0054 134.414H60.8064M90.2097 134.414H100.011M119.613 134.414H129.414M139.215 134.414H168.618M178.419 134.414H198.021M227.425 134.414H247.027M2 144.215H21.6021M31.4032 144.215H41.2043M51.0054 144.215H90.2097M119.613 144.215H139.215M149.016 144.215H168.618M207.823 144.215H227.425M237.226 144.215H247.027M21.6021 154.016H31.4032M41.2043 154.016H51.0054M70.6075 154.016H80.4086M109.812 154.016H129.414M149.016 154.016H168.618M188.22 154.016H217.624M2 163.817H31.4032M41.2043 163.817H90.2097M119.613 163.817H139.215M158.817 163.817H207.823M227.425 163.817H237.226M80.4086 173.618H90.2097M129.414 173.618H139.215M158.817 173.618H168.618M198.021 173.618H207.823M237.226 173.618H247.027M2 183.419H70.6075M80.4086 183.419H90.2097M109.812 183.419H129.414M139.215 183.419H149.016M158.817 183.419H168.618M178.419 183.419H188.22M198.021 183.419H207.823M237.226 183.419H247.027M2 193.22H11.8011M60.8064 193.22H70.6075M139.215 193.22H149.016M158.817 193.22H168.618M198.021 193.22H207.823M227.425 193.22H237.226M2 203.022H11.8011M21.6021 203.022H51.0054M60.8064 203.022H70.6075M90.2097 203.022H100.011M149.016 203.022H207.823M227.425 203.022H237.226M2 212.823H11.8011M21.6021 212.823H51.0054M60.8064 212.823H70.6075M90.2097 212.823H100.011M119.613 212.823H158.817M168.618 212.823H178.419M198.021 212.823H207.823M217.624 212.823H237.226M2 222.624H11.8011M21.6021 222.624H51.0054M60.8064 222.624H70.6075M80.4086 222.624H100.011M109.812 222.624H158.817M168.618 222.624H178.419M188.22 222.624H217.624M227.425 222.624H247.027M2 232.425H11.8011M60.8064 232.425H70.6075M90.2097 232.425H100.011M139.215 232.425H207.823M2 242.226H70.6075M80.4086 242.226H90.2097M109.812 242.226H119.613M158.817 242.226H188.22M207.823 242.226H217.624M237.226 242.226H247.027" stroke="black" stroke-width="9.80107"/>
</svg>
